# This file uses centimeters as units for non-parametric coordinates.

mtllib Fences3.mtl
g default
v 1.843348 5.778913 11.101781
v 1.843348 9.695124 11.101781
v 1.843348 9.695124 -11.101781
v 1.843348 5.778913 -11.101781
v 1.290444 7.737018 11.101781
v 1.290444 7.737018 -11.101781
v 1.290444 8.716071 -11.101781
v 1.290444 8.716071 11.101781
v 1.290444 6.757967 11.101781
v 1.290444 6.757967 -11.101781
v 1.843348 10.373122 11.101781
v 1.843348 10.373122 -11.101781
v 1.843348 5.100915 -11.101781
v 1.843348 5.100915 11.101781
v 1.425358 10.942408 11.101781
v 1.425358 10.942408 -11.101781
v 1.425358 4.531631 -11.101781
v 1.425358 4.531631 11.101781
v 1.181833 5.778913 12.180842
v 0.628929 6.757967 12.180842
v 1.181833 9.695124 -12.180842
v 0.628929 8.716071 -12.180842
v 0.628929 7.737018 12.180842
v 0.628929 8.716071 12.180842
v 0.628929 7.737018 -12.180842
v 0.628929 6.757967 -12.180842
v 1.181833 9.695124 12.180842
v 1.181833 5.778913 -12.180842
v 1.181833 10.373122 12.180842
v 1.181833 10.373122 -12.180842
v 1.181833 5.100915 -12.180842
v 1.181833 5.100915 12.180842
v 0.763842 10.942408 12.180842
v 0.763842 10.942408 -12.180842
v 0.763842 4.531631 -12.180842
v 0.763842 4.531631 12.180842
v 0.309017 0.000000 9.048944
v -0.809017 0.000000 9.412214
v -0.809017 0.000000 10.587786
v 0.309017 0.000000 10.951056
v 1.000000 0.000000 10.000000
v 0.309017 11.619607 9.048944
v -0.809017 11.619607 9.412214
v -0.809017 11.619607 10.587786
v 0.309017 11.619607 10.951056
v 1.000000 11.619607 10.000000
v 0.000000 0.000000 10.000000
v 0.000000 11.619607 10.000000
v 0.309017 0.000000 -10.951056
v -0.809017 0.000000 -10.587786
v -0.809017 0.000000 -9.412214
v 0.309017 0.000000 -9.048944
v 1.000000 0.000000 -10.000000
v 0.309017 11.619607 -10.951056
v -0.809017 11.619607 -10.587786
v -0.809017 11.619607 -9.412214
v 0.309017 11.619607 -9.048944
v 1.000000 11.619607 -10.000000
v 0.000000 0.000000 -10.000000
v 0.000000 11.619607 -10.000000
vt 0.949482 0.141633
vt 0.050518 0.141633
vt 0.050518 0.101923
vt 0.949482 0.101923
vt 0.949482 0.181342
vt 0.050518 0.181342
vt 0.050518 0.056624
vt 0.949482 0.056624
vt 0.949482 0.226641
vt 0.050518 0.226641
vt 0.050518 0.028308
vt 0.949482 0.028308
vt 0.949482 0.254958
vt 0.050518 0.254958
vt 0.050518 0.000000
vt 0.949482 0.000000
vt 0.949482 0.283265
vt 0.050518 0.283265
vt 1.000000 0.181342
vt 1.000000 0.226641
vt 0.000000 0.101923
vt 0.000000 0.056624
vt 1.000000 0.101923
vt 1.000000 0.141633
vt 0.000000 0.181342
vt 0.000000 0.141633
vt 1.000000 0.056624
vt 0.000000 0.226641
vt 1.000000 0.028308
vt 0.000000 0.028308
vt 0.000000 0.254958
vt 1.000000 0.254958
vt 1.000000 0.000000
vt 0.000000 0.000000
vt 0.000000 0.283265
vt 1.000000 0.283265
vt 0.472859 0.286340
vt 0.472548 0.334023
vt 0.001245 0.330948
vt 0.001556 0.283265
vt 0.472237 0.381705
vt 0.000933 0.378630
vt 0.471926 0.429388
vt 0.000622 0.426312
vt 0.471615 0.477070
vt 0.000311 0.473995
vt 0.471304 0.524752
vt 0.000000 0.521677
vt 0.752533 0.521888
vt 0.767190 0.567263
vt 0.728635 0.554663
vt 0.704850 0.521807
vt 0.690037 0.567131
vt 0.728566 0.595225
vt 0.612753 0.567077
vt 0.627566 0.521752
vt 0.651351 0.554608
vt 0.675249 0.521834
vt 0.689906 0.567209
vt 0.651281 0.595170
vt 0.999925 0.283598
vt 0.999891 0.331281
vt 0.528578 0.330949
vt 0.528611 0.283265
vt 0.999857 0.378965
vt 0.528544 0.378632
vt 0.999824 0.426648
vt 0.528510 0.426315
vt 0.999790 0.474331
vt 0.528477 0.473999
vt 0.999756 0.522015
vt 0.528443 0.521682
vt 0.524445 0.509298
vt 0.539102 0.554673
vt 0.500547 0.542073
vt 0.476761 0.509217
vt 0.461948 0.554541
vt 0.500477 0.582635
vt 0.535469 0.567022
vt 0.550282 0.521698
vt 0.574067 0.554554
vt 0.597965 0.521779
vt 0.612622 0.567154
vt 0.573998 0.595116
vn 1.000000 0.000000 0.000000
vn 1.000000 0.000000 0.000000
vn 0.962370 -0.271741 0.000000
vn 0.962370 -0.271741 0.000000
vn 0.962370 0.271741 0.000000
vn 0.962370 0.271741 0.000000
vn 0.948588 -0.316513 0.000000
vn 0.948588 -0.316513 0.000000
vn 0.948588 0.316513 0.000000
vn 0.948588 0.316513 0.000000
vn 1.000000 0.000000 0.000000
vn 1.000000 0.000000 0.000000
vn 1.000000 0.000000 0.000000
vn 1.000000 0.000000 0.000000
vn 0.806058 0.591837 0.000000
vn 0.806058 0.591837 0.000000
vn 0.806058 0.591837 0.000000
vn 0.806058 0.591837 0.000000
vn 0.806057 -0.591837 0.000000
vn 0.806057 -0.591837 0.000000
vn 0.806057 -0.591837 0.000000
vn 0.806057 -0.591837 0.000000
vn 0.768152 0.433801 0.470913
vn 0.768152 0.433801 0.470913
vn 0.768152 0.433801 0.470913
vn 0.768152 0.433801 0.470913
vn 0.768152 -0.433801 -0.470914
vn 0.768152 -0.433801 -0.470914
vn 0.768152 -0.433801 -0.470914
vn 0.768152 -0.433801 -0.470914
vn 0.852547 0.000000 0.522651
vn 0.852547 0.000000 0.522651
vn 0.852547 0.000000 0.522651
vn 0.852547 0.000000 0.522651
vn 0.852547 0.000000 -0.522651
vn 0.852547 0.000000 -0.522651
vn 0.852547 0.000000 -0.522651
vn 0.852547 0.000000 -0.522651
vn 0.852547 0.000000 -0.522651
vn 0.852547 0.000000 -0.522651
vn 0.852547 0.000000 -0.522651
vn 0.852547 0.000000 -0.522651
vn 0.768152 -0.433801 0.470913
vn 0.768152 -0.433801 0.470913
vn 0.768152 -0.433801 0.470913
vn 0.768152 -0.433801 0.470913
vn 0.852547 0.000000 0.522651
vn 0.852547 0.000000 0.522651
vn 0.852547 0.000000 0.522651
vn 0.852547 0.000000 0.522651
vn 0.768152 0.433801 -0.470913
vn 0.768152 0.433801 -0.470913
vn 0.768152 0.433801 -0.470913
vn 0.768152 0.433801 -0.470913
vn 0.852547 0.000000 0.522651
vn 0.852547 0.000000 0.522651
vn 0.852547 0.000000 0.522651
vn 0.852547 0.000000 0.522651
vn 0.852547 0.000000 -0.522651
vn 0.852547 0.000000 -0.522651
vn 0.852547 0.000000 -0.522651
vn 0.852547 0.000000 -0.522651
vn 0.852547 0.000000 -0.522651
vn 0.852547 0.000000 -0.522651
vn 0.852547 0.000000 -0.522651
vn 0.852547 0.000000 -0.522651
vn 0.852547 0.000000 0.522651
vn 0.852547 0.000000 0.522651
vn 0.852547 0.000000 0.522651
vn 0.852547 0.000000 0.522651
vn 0.722643 0.530591 0.443014
vn 0.722642 0.530591 0.443014
vn 0.722643 0.530591 0.443014
vn 0.722642 0.530591 0.443014
vn 0.722642 0.530591 -0.443014
vn 0.722642 0.530590 -0.443014
vn 0.722642 0.530591 -0.443014
vn 0.722642 0.530590 -0.443014
vn 0.722642 -0.530591 -0.443014
vn 0.722642 -0.530591 -0.443014
vn 0.722642 -0.530591 -0.443014
vn 0.722642 -0.530591 -0.443014
vn 0.722642 -0.530591 0.443014
vn 0.722642 -0.530591 0.443014
vn 0.722642 -0.530591 0.443014
vn 0.722642 -0.530591 0.443014
vn -0.309017 0.000000 -0.951057
vn -0.309017 0.000000 -0.951057
vn -0.309017 0.000000 -0.951057
vn -0.309017 0.000000 -0.951057
vn -1.000000 0.000000 -0.000000
vn -1.000000 0.000000 -0.000000
vn -1.000000 0.000000 -0.000000
vn -1.000000 0.000000 -0.000000
vn -0.309017 0.000000 0.951057
vn -0.309017 0.000000 0.951057
vn -0.309017 0.000000 0.951057
vn -0.309017 0.000000 0.951057
vn 0.809017 0.000000 0.587785
vn 0.809017 0.000000 0.587785
vn 0.809017 0.000000 0.587785
vn 0.809017 0.000000 0.587785
vn 0.809017 0.000000 -0.587785
vn 0.809017 0.000000 -0.587785
vn 0.809017 0.000000 -0.587785
vn 0.809017 0.000000 -0.587785
vn 0.000000 -1.000000 0.000000
vn 0.000000 -1.000000 0.000000
vn 0.000000 -1.000000 0.000000
vn 0.000000 -1.000000 0.000000
vn 0.000000 -1.000000 0.000000
vn 0.000000 -1.000000 0.000000
vn 0.000000 1.000000 0.000001
vn 0.000000 1.000000 0.000001
vn 0.000000 1.000000 0.000001
vn 0.000000 1.000000 0.000001
vn 0.000000 1.000000 0.000001
vn 0.000000 1.000000 -0.000001
vn -0.309016 0.000000 -0.951057
vn -0.309016 0.000000 -0.951057
vn -0.309016 0.000000 -0.951057
vn -0.309016 0.000000 -0.951057
vn -1.000000 0.000000 -0.000000
vn -1.000000 0.000000 -0.000000
vn -1.000000 0.000000 -0.000000
vn -1.000000 0.000000 -0.000000
vn -0.309017 0.000000 0.951057
vn -0.309017 0.000000 0.951057
vn -0.309017 0.000000 0.951057
vn -0.309017 0.000000 0.951057
vn 0.809017 0.000000 0.587785
vn 0.809017 0.000000 0.587785
vn 0.809017 0.000000 0.587785
vn 0.809017 0.000000 0.587785
vn 0.809017 0.000000 -0.587785
vn 0.809017 0.000000 -0.587785
vn 0.809017 0.000000 -0.587785
vn 0.809017 0.000000 -0.587785
vn 0.000000 -1.000000 0.000000
vn 0.000000 -1.000000 0.000000
vn 0.000000 -1.000000 -0.000000
vn 0.000000 -1.000000 -0.000000
vn 0.000000 -1.000000 -0.000000
vn 0.000000 -1.000000 0.000000
vn 0.000000 1.000000 0.000001
vn 0.000000 1.000000 0.000001
vn 0.000000 1.000000 0.000001
vn 0.000000 1.000000 0.000001
vn 0.000000 1.000000 0.000001
vn 0.000000 1.000000 -0.000001
s 1
g face2
usemtl initialShadingGroup
f 5/1/1 6/2/2 7/3/3 8/4/4
f 9/5/5 10/6/6 6/2/2 5/1/1
f 8/4/4 7/3/3 3/7/7 2/8/8
f 1/9/9 4/10/10 10/6/6 9/5/5
f 2/8/8 3/7/7 12/11/11 11/12/12
f 4/10/10 1/9/9 14/13/13 13/14/14
s off
f 11/12/15 12/11/16 16/15/17 15/16/18
f 13/14/19 14/13/20 18/17/21 17/18/22
f 1/9/23 9/5/24 20/19/25 19/20/26
f 3/7/27 7/3/28 22/21/29 21/22/30
f 5/1/31 8/4/32 24/23/33 23/24/34
f 6/2/35 10/6/36 26/25/37 25/26/38
f 7/3/39 6/2/40 25/26/41 22/21/42
f 8/4/43 2/8/44 27/27/45 24/23/46
f 9/5/47 5/1/48 23/24/49 20/19/50
f 10/6/51 4/10/52 28/28/53 26/25/54
f 2/8/55 11/12/56 29/29/57 27/27/58
f 12/11/59 3/7/60 21/22/61 30/30/62
f 4/10/63 13/14/64 31/31/65 28/28/66
f 14/13/67 1/9/68 19/20/69 32/32/70
f 11/12/71 15/16/72 33/33/73 29/29/74
f 16/15/75 12/11/76 30/30/77 34/34/78
f 13/14/79 17/18/80 35/35/81 31/31/82
f 18/17/83 14/13/84 32/32/85 36/36/86
f 37/37/87 38/38/88 43/39/89 42/40/90
f 38/38/91 39/41/92 44/42/93 43/39/94
f 39/41/95 40/43/96 45/44/97 44/42/98
f 40/43/99 41/45/100 46/46/101 45/44/102
f 41/45/103 37/47/104 42/48/105 46/46/106
s 2
f 38/49/107 37/50/108 47/51/109
f 39/52/110 38/49/107 47/51/109
f 40/53/111 39/52/110 47/51/109
f 41/54/112 40/53/111 47/51/109
f 37/50/108 41/54/112 47/51/109
s 3
f 42/55/113 43/56/114 48/57/115
f 43/56/114 44/58/116 48/57/115
f 44/58/116 45/59/117 48/57/115
f 45/59/117 46/60/118 48/57/115
f 46/60/118 42/55/113 48/57/115
s off
f 49/61/119 50/62/120 55/63/121 54/64/122
f 50/62/123 51/65/124 56/66/125 55/63/126
f 51/65/127 52/67/128 57/68/129 56/66/130
f 52/67/131 53/69/132 58/70/133 57/68/134
f 53/69/135 49/71/136 54/72/137 58/70/138
s 4
f 50/73/139 49/74/140 59/75/141
f 51/76/142 50/73/139 59/75/141
f 52/77/143 51/76/142 59/75/141
f 53/78/144 52/77/143 59/75/141
f 49/74/140 53/78/144 59/75/141
s 5
f 54/79/145 55/80/146 60/81/147
f 55/80/146 56/82/148 60/81/147
f 56/82/148 57/83/149 60/81/147
f 57/83/149 58/84/150 60/81/147
f 58/84/150 54/79/145 60/81/147
