# This file uses centimeters as units for non-parametric coordinates.

mtllib Fences2.mtl
g default
v -0.415656 9.128196 10.372986
v 0.287599 9.128196 10.372986
v -0.415656 11.050534 10.372986
v 0.287599 11.050534 10.372986
v -0.415656 11.050534 -10.372986
v 0.287599 11.050534 -10.372986
v -0.415656 9.128196 -10.372986
v 0.287599 9.128196 -10.372986
v -0.415656 6.084099 10.372986
v 0.287599 6.084099 10.372986
v -0.415656 8.006437 10.372986
v 0.287599 8.006437 10.372986
v -0.415656 8.006437 -10.372986
v 0.287599 8.006437 -10.372986
v -0.415656 6.084099 -10.372986
v 0.287599 6.084099 -10.372986
v -0.415656 3.081983 10.372986
v 0.287599 3.081983 10.372986
v -0.415656 5.004321 10.372986
v 0.287599 5.004321 10.372986
v -0.415656 5.004321 -10.372986
v 0.287599 5.004321 -10.372986
v -0.415656 3.081983 -10.372986
v 0.287599 3.081983 -10.372986
v 0.309017 0.000000 -10.951056
v -0.809017 0.000000 -10.587786
v -0.809017 0.000000 -9.412214
v 0.309017 0.000000 -9.048944
v 1.000000 0.000000 -10.000000
v 0.309017 11.619607 -10.951056
v -0.809017 11.619607 -10.587786
v -0.809017 11.619607 -9.412214
v 0.309017 11.619607 -9.048944
v 1.000000 11.619607 -10.000000
v 0.000000 0.000000 -10.000000
v 0.000000 11.619607 -10.000000
v 0.309017 0.000000 9.048944
v -0.809017 0.000000 9.412214
v -0.809017 0.000000 10.587786
v 0.309017 0.000000 10.951056
v 1.000000 0.000000 10.000000
v 0.309017 11.619607 9.048944
v -0.809017 11.619607 9.412214
v -0.809017 11.619607 10.587786
v 0.309017 11.619607 10.951056
v 1.000000 11.619607 10.000000
v 0.000000 0.000000 10.000000
v 0.000000 11.619607 10.000000
vt 0.477860 0.405339
vt 0.460341 0.000000
vt 0.999998 0.538124
vt 0.000004 0.316828
vt 0.522138 0.538171
vt 0.522140 0.554370
vt 0.477859 0.538176
vt 0.477861 0.554374
vt 0.000000 0.538223
vt 0.000002 0.554422
vt 0.477860 0.272502
vt 0.477864 0.316781
vt 0.000000 0.405386
vt 0.000004 0.449665
vt 0.000000 0.272549
vt 0.460346 0.044279
vt 1.000000 0.554323
vt 0.444143 0.000002
vt 0.444147 0.044280
vt 0.477864 0.449618
vt 0.476692 0.000002
vt 0.492891 0.000000
vt 0.492895 0.044279
vt 0.476696 0.044281
vt 0.999998 0.554323
vt 1.000000 0.570522
vt 0.522140 0.570569
vt 0.522139 0.554370
vt 0.477861 0.570573
vt 0.477860 0.554375
vt 0.000002 0.570620
vt 0.000000 0.554422
vt 0.000000 0.316828
vt 0.477860 0.316781
vt 0.477864 0.361060
vt 0.000004 0.361107
vt 0.000000 0.361107
vt 0.477859 0.361060
vt 0.477863 0.405339
vt 0.000004 0.405386
vt 0.460417 0.000002
vt 0.476616 0.000000
vt 0.476620 0.044279
vt 0.460422 0.044281
vt 0.999998 0.570522
vt 1.000000 0.586721
vt 0.522140 0.586768
vt 0.522139 0.570569
vt 0.477861 0.586772
vt 0.477860 0.570573
vt 0.000002 0.586819
vt 0.000000 0.570620
vt 0.000000 0.449665
vt 0.477859 0.449618
vt 0.477864 0.493897
vt 0.000004 0.493944
vt 0.015925 0.493942
vt 0.493784 0.493895
vt 0.493788 0.538174
vt 0.015929 0.538221
vt 0.267740 0.137133
vt 0.267721 0.164211
vt 0.000076 0.164022
vt 0.000096 0.136944
vt 0.267702 0.191289
vt 0.000057 0.191100
vt 0.267682 0.218367
vt 0.000038 0.218178
vt 0.267663 0.245445
vt 0.000019 0.245256
vt 0.267644 0.272523
vt 0.000000 0.272334
vt 0.303935 0.000046
vt 0.312258 0.025813
vt 0.290364 0.018658
vt 0.276857 0.000000
vt 0.268446 0.025738
vt 0.290325 0.041692
vt 0.400218 0.025738
vt 0.408630 0.000000
vt 0.422137 0.018658
vt 0.435708 0.000046
vt 0.444031 0.025813
vt 0.422098 0.041692
vt 0.268522 0.001746
vt 0.268345 0.028824
vt 0.000707 0.027077
vt 0.000883 -0.000000
vt 0.268169 0.055901
vt 0.000530 0.054155
vt 0.267992 0.082978
vt 0.000353 0.081232
vt 0.267815 0.110056
vt 0.000177 0.108309
vt 0.267639 0.137133
vt 0.000000 0.135387
vt 0.391784 0.000046
vt 0.400107 0.025813
vt 0.378213 0.018658
vt 0.364706 0.000000
vt 0.356294 0.025738
vt 0.378173 0.041692
vt 0.312370 0.025738
vt 0.320781 0.000000
vt 0.334288 0.018658
vt 0.347859 0.000046
vt 0.356183 0.025813
vt 0.334249 0.041692
vn 0.000000 0.000000 1.000000
vn 0.000000 0.000000 1.000000
vn 0.000000 0.000000 1.000000
vn 0.000000 0.000000 1.000000
vn 0.000000 1.000000 0.000000
vn 0.000000 1.000000 0.000000
vn 0.000000 1.000000 0.000000
vn 0.000000 1.000000 0.000000
vn 0.000000 0.000000 -1.000000
vn 0.000000 0.000000 -1.000000
vn 0.000000 0.000000 -1.000000
vn 0.000000 0.000000 -1.000000
vn 0.000000 -1.000000 0.000000
vn 0.000000 -1.000000 0.000000
vn 0.000000 -1.000000 0.000000
vn 0.000000 -1.000000 0.000000
vn 1.000000 0.000000 0.000000
vn 1.000000 0.000000 0.000000
vn 1.000000 0.000000 0.000000
vn 1.000000 0.000000 0.000000
vn -1.000000 0.000000 0.000000
vn -1.000000 0.000000 0.000000
vn -1.000000 0.000000 0.000000
vn -1.000000 0.000000 0.000000
vn 0.000000 0.000000 1.000000
vn 0.000000 0.000000 1.000000
vn 0.000000 0.000000 1.000000
vn 0.000000 0.000000 1.000000
vn 0.000000 1.000000 0.000000
vn 0.000000 1.000000 0.000000
vn 0.000000 1.000000 0.000000
vn 0.000000 1.000000 0.000000
vn 0.000000 0.000000 -1.000000
vn 0.000000 0.000000 -1.000000
vn 0.000000 0.000000 -1.000000
vn 0.000000 0.000000 -1.000000
vn 0.000000 -1.000000 0.000000
vn 0.000000 -1.000000 0.000000
vn 0.000000 -1.000000 0.000000
vn 0.000000 -1.000000 0.000000
vn 1.000000 0.000000 0.000000
vn 1.000000 0.000000 0.000000
vn 1.000000 0.000000 0.000000
vn 1.000000 0.000000 0.000000
vn -1.000000 0.000000 0.000000
vn -1.000000 0.000000 0.000000
vn -1.000000 0.000000 0.000000
vn -1.000000 0.000000 0.000000
vn 0.000000 0.000000 1.000000
vn 0.000000 0.000000 1.000000
vn 0.000000 0.000000 1.000000
vn 0.000000 0.000000 1.000000
vn 0.000000 1.000000 0.000000
vn 0.000000 1.000000 0.000000
vn 0.000000 1.000000 0.000000
vn 0.000000 1.000000 0.000000
vn 0.000000 0.000000 -1.000000
vn 0.000000 0.000000 -1.000000
vn 0.000000 0.000000 -1.000000
vn 0.000000 0.000000 -1.000000
vn 0.000000 -1.000000 0.000000
vn 0.000000 -1.000000 0.000000
vn 0.000000 -1.000000 0.000000
vn 0.000000 -1.000000 0.000000
vn 1.000000 0.000000 0.000000
vn 1.000000 0.000000 0.000000
vn 1.000000 0.000000 0.000000
vn 1.000000 0.000000 0.000000
vn -1.000000 0.000000 0.000000
vn -1.000000 0.000000 0.000000
vn -1.000000 0.000000 0.000000
vn -1.000000 0.000000 0.000000
vn -0.309016 0.000000 -0.951057
vn -0.309016 0.000000 -0.951057
vn -0.309016 0.000000 -0.951057
vn -0.309016 0.000000 -0.951057
vn -1.000000 0.000000 -0.000000
vn -1.000000 0.000000 -0.000000
vn -1.000000 0.000000 -0.000000
vn -1.000000 0.000000 -0.000000
vn -0.309017 0.000000 0.951057
vn -0.309017 0.000000 0.951057
vn -0.309017 0.000000 0.951057
vn -0.309017 0.000000 0.951057
vn 0.809017 0.000000 0.587785
vn 0.809017 0.000000 0.587785
vn 0.809017 0.000000 0.587785
vn 0.809017 0.000000 0.587785
vn 0.809017 0.000000 -0.587785
vn 0.809017 0.000000 -0.587785
vn 0.809017 0.000000 -0.587785
vn 0.809017 0.000000 -0.587785
vn 0.000000 -1.000000 0.000000
vn 0.000000 -1.000000 0.000000
vn 0.000000 -1.000000 -0.000000
vn 0.000000 -1.000000 -0.000000
vn 0.000000 -1.000000 -0.000000
vn 0.000000 -1.000000 0.000000
vn 0.000000 1.000000 0.000001
vn 0.000000 1.000000 0.000001
vn 0.000000 1.000000 0.000001
vn 0.000000 1.000000 0.000001
vn 0.000000 1.000000 0.000001
vn 0.000000 1.000000 -0.000001
vn -0.309017 0.000000 -0.951057
vn -0.309017 0.000000 -0.951057
vn -0.309017 0.000000 -0.951057
vn -0.309017 0.000000 -0.951057
vn -1.000000 0.000000 -0.000000
vn -1.000000 0.000000 -0.000000
vn -1.000000 0.000000 -0.000000
vn -1.000000 0.000000 -0.000000
vn -0.309017 0.000000 0.951057
vn -0.309017 0.000000 0.951057
vn -0.309017 0.000000 0.951057
vn -0.309017 0.000000 0.951057
vn 0.809017 0.000000 0.587785
vn 0.809017 0.000000 0.587785
vn 0.809017 0.000000 0.587785
vn 0.809017 0.000000 0.587785
vn 0.809017 0.000000 -0.587785
vn 0.809017 0.000000 -0.587785
vn 0.809017 0.000000 -0.587785
vn 0.809017 0.000000 -0.587785
vn 0.000000 -1.000000 0.000000
vn 0.000000 -1.000000 0.000000
vn 0.000000 -1.000000 0.000000
vn 0.000000 -1.000000 0.000000
vn 0.000000 -1.000000 0.000000
vn 0.000000 -1.000000 0.000000
vn 0.000000 1.000000 0.000001
vn 0.000000 1.000000 0.000001
vn 0.000000 1.000000 0.000001
vn 0.000000 1.000000 0.000001
vn 0.000000 1.000000 0.000001
vn 0.000000 1.000000 -0.000001
s off
g fac2
usemtl initialShadingGroup
f 1/18/1 2/2/2 4/16/3 3/19/4
f 3/3/5 4/17/6 6/6/7 5/5/8
f 5/5/9 6/6/10 8/8/11 7/7/12
f 7/7/13 8/8/14 2/10/15 1/9/16
f 2/15/17 8/11/18 6/12/19 4/4/20
f 7/13/21 1/1/22 3/20/23 5/14/24
f 9/21/25 10/22/26 12/23/27 11/24/28
f 11/25/29 12/26/30 14/27/31 13/28/32
f 13/28/33 14/27/34 16/29/35 15/30/36
f 15/30/37 16/29/38 10/31/39 9/32/40
f 10/33/41 16/34/42 14/35/43 12/36/44
f 15/37/45 9/38/46 11/39/47 13/40/48
f 17/41/49 18/42/50 20/43/51 19/44/52
f 19/45/53 20/46/54 22/47/55 21/48/56
f 21/48/57 22/47/58 24/49/59 23/50/60
f 23/50/61 24/49/62 18/51/63 17/52/64
f 18/53/65 24/54/66 22/55/67 20/56/68
f 23/57/69 17/58/70 19/59/71 21/60/72
f 25/61/73 26/62/74 31/63/75 30/64/76
f 26/62/77 27/65/78 32/66/79 31/63/80
f 27/65/81 28/67/82 33/68/83 32/66/84
f 28/67/85 29/69/86 34/70/87 33/68/88
f 29/69/89 25/71/90 30/72/91 34/70/92
s 1
f 26/73/93 25/74/94 35/75/95
f 27/76/96 26/73/93 35/75/95
f 28/77/97 27/76/96 35/75/95
f 29/78/98 28/77/97 35/75/95
f 25/74/94 29/78/98 35/75/95
s 2
f 30/79/99 31/80/100 36/81/101
f 31/80/100 32/82/102 36/81/101
f 32/82/102 33/83/103 36/81/101
f 33/83/103 34/84/104 36/81/101
f 34/84/104 30/79/99 36/81/101
s off
f 37/85/105 38/86/106 43/87/107 42/88/108
f 38/86/109 39/89/110 44/90/111 43/87/112
f 39/89/113 40/91/114 45/92/115 44/90/116
f 40/91/117 41/93/118 46/94/119 45/92/120
f 41/93/121 37/95/122 42/96/123 46/94/124
s 3
f 38/97/125 37/98/126 47/99/127
f 39/100/128 38/97/125 47/99/127
f 40/101/129 39/100/128 47/99/127
f 41/102/130 40/101/129 47/99/127
f 37/98/126 41/102/130 47/99/127
s 4
f 42/103/131 43/104/132 48/105/133
f 43/104/132 44/106/134 48/105/133
f 44/106/134 45/107/135 48/105/133
f 45/107/135 46/108/136 48/105/133
f 46/108/136 42/103/131 48/105/133
