# This file uses centimeters as units for non-parametric coordinates.

mtllib Fences.mtl
g default
v 0.000000 10.866201 9.433169
v -0.000000 0.756498 9.433169
v 0.000000 10.866201 -9.433169
v -0.000000 0.756498 -9.433169
v 0.309017 0.000000 -10.951056
v -0.809017 0.000000 -10.587786
v -0.809017 0.000000 -9.412214
v 0.309017 0.000000 -9.048944
v 1.000000 0.000000 -10.000000
v 0.309017 11.619607 -10.951056
v -0.809017 11.619607 -10.587786
v -0.809017 11.619607 -9.412214
v 0.309017 11.619607 -9.048944
v 1.000000 11.619607 -10.000000
v 0.000000 0.000000 -10.000000
v 0.000000 11.619607 -10.000000
v 0.309017 0.000000 9.048944
v -0.809017 0.000000 9.412214
v -0.809017 0.000000 10.587786
v 0.309017 0.000000 10.951056
v 1.000000 0.000000 10.000000
v 0.309017 11.619607 9.048944
v -0.809017 11.619607 9.412214
v -0.809017 11.619607 10.587786
v 0.309017 11.619607 10.951056
v 1.000000 11.619607 10.000000
v 0.000000 0.000000 10.000000
v 0.000000 11.619607 10.000000
vt 0.000065 0.464547
vt 0.000000 0.000123
vt 0.866755 0.464425
vt 0.866690 0.000001
vt 0.449301 0.472399
vt 0.449269 0.517294
vt 0.005515 0.516981
vt 0.005547 0.472086
vt 0.449237 0.562189
vt 0.005483 0.561876
vt 0.449206 0.607084
vt 0.005452 0.606771
vt 0.449174 0.651979
vt 0.005420 0.651666
vt 0.449142 0.696874
vt 0.005388 0.696561
vt 0.226161 0.763157
vt 0.242761 0.814546
vt 0.199095 0.800276
vt 0.172157 0.763065
vt 0.155381 0.814397
vt 0.199016 0.846214
vt 0.084109 0.764706
vt 0.100885 0.713374
vt 0.127823 0.750585
vt 0.154888 0.713466
vt 0.171488 0.764856
vt 0.127744 0.796523
vt 0.901821 0.476138
vt 0.901528 0.521032
vt 0.457783 0.518136
vt 0.458076 0.473242
vt 0.901235 0.565926
vt 0.457490 0.563031
vt 0.900942 0.610820
vt 0.457197 0.607925
vt 0.900649 0.655714
vt 0.456904 0.652819
vt 0.900356 0.700609
vt 0.456612 0.697713
vt 0.297477 0.713466
vt 0.314078 0.764856
vt 0.270412 0.750585
vt 0.243474 0.713374
vt 0.226698 0.764706
vt 0.270333 0.796523
vt 0.012792 0.814397
vt 0.029568 0.763065
vt 0.056506 0.800276
vt 0.083572 0.763157
vt 0.100172 0.814546
vt 0.056427 0.846214
vn 1.000000 -0.000000 0.000000
vn 1.000000 -0.000000 0.000000
vn 1.000000 -0.000000 0.000000
vn 1.000000 -0.000000 0.000000
vn -0.309016 0.000000 -0.951057
vn -0.309016 0.000000 -0.951057
vn -0.309016 0.000000 -0.951057
vn -0.309016 0.000000 -0.951057
vn -1.000000 0.000000 -0.000000
vn -1.000000 0.000000 -0.000000
vn -1.000000 0.000000 -0.000000
vn -1.000000 0.000000 -0.000000
vn -0.309017 0.000000 0.951057
vn -0.309017 0.000000 0.951057
vn -0.309017 0.000000 0.951057
vn -0.309017 0.000000 0.951057
vn 0.809017 0.000000 0.587785
vn 0.809017 0.000000 0.587785
vn 0.809017 0.000000 0.587785
vn 0.809017 0.000000 0.587785
vn 0.809017 0.000000 -0.587785
vn 0.809017 0.000000 -0.587785
vn 0.809017 0.000000 -0.587785
vn 0.809017 0.000000 -0.587785
vn 0.000000 -1.000000 0.000000
vn 0.000000 -1.000000 0.000000
vn 0.000000 -1.000000 -0.000000
vn 0.000000 -1.000000 -0.000000
vn 0.000000 -1.000000 -0.000000
vn 0.000000 -1.000000 0.000000
vn 0.000000 1.000000 0.000001
vn 0.000000 1.000000 0.000001
vn 0.000000 1.000000 0.000001
vn 0.000000 1.000000 0.000001
vn 0.000000 1.000000 0.000001
vn 0.000000 1.000000 -0.000001
vn -0.309017 0.000000 -0.951057
vn -0.309017 0.000000 -0.951057
vn -0.309017 0.000000 -0.951057
vn -0.309017 0.000000 -0.951057
vn -1.000000 0.000000 -0.000000
vn -1.000000 0.000000 -0.000000
vn -1.000000 0.000000 -0.000000
vn -1.000000 0.000000 -0.000000
vn -0.309017 0.000000 0.951057
vn -0.309017 0.000000 0.951057
vn -0.309017 0.000000 0.951057
vn -0.309017 0.000000 0.951057
vn 0.809017 0.000000 0.587785
vn 0.809017 0.000000 0.587785
vn 0.809017 0.000000 0.587785
vn 0.809017 0.000000 0.587785
vn 0.809017 0.000000 -0.587785
vn 0.809017 0.000000 -0.587785
vn 0.809017 0.000000 -0.587785
vn 0.809017 0.000000 -0.587785
vn 0.000000 -1.000000 0.000000
vn 0.000000 -1.000000 0.000000
vn 0.000000 -1.000000 0.000000
vn 0.000000 -1.000000 0.000000
vn 0.000000 -1.000000 0.000000
vn 0.000000 -1.000000 0.000000
vn 0.000000 1.000000 0.000001
vn 0.000000 1.000000 0.000001
vn 0.000000 1.000000 0.000001
vn 0.000000 1.000000 0.000001
vn 0.000000 1.000000 0.000001
vn 0.000000 1.000000 -0.000001
s off
g fens
usemtl initialShadingGroup
f 1/1/1 2/2/2 4/4/3 3/3/4
f 5/5/5 6/6/6 11/7/7 10/8/8
f 6/6/9 7/9/10 12/10/11 11/7/12
f 7/9/13 8/11/14 13/12/15 12/10/16
f 8/11/17 9/13/18 14/14/19 13/12/20
f 9/13/21 5/15/22 10/16/23 14/14/24
s 1
f 6/17/25 5/18/26 15/19/27
f 7/20/28 6/17/25 15/19/27
f 8/21/29 7/20/28 15/19/27
f 9/22/30 8/21/29 15/19/27
f 5/18/26 9/22/30 15/19/27
s 2
f 10/23/31 11/24/32 16/25/33
f 11/24/32 12/26/34 16/25/33
f 12/26/34 13/27/35 16/25/33
f 13/27/35 14/28/36 16/25/33
f 14/28/36 10/23/31 16/25/33
s off
f 17/29/37 18/30/38 23/31/39 22/32/40
f 18/30/41 19/33/42 24/34/43 23/31/44
f 19/33/45 20/35/46 25/36/47 24/34/48
f 20/35/49 21/37/50 26/38/51 25/36/52
f 21/37/53 17/39/54 22/40/55 26/38/56
s 3
f 18/41/57 17/42/58 27/43/59
f 19/44/60 18/41/57 27/43/59
f 20/45/61 19/44/60 27/43/59
f 21/46/62 20/45/61 27/43/59
f 17/42/58 21/46/62 27/43/59
s 4
f 22/47/63 23/48/64 28/49/65
f 23/48/64 24/50/66 28/49/65
f 24/50/66 25/51/67 28/49/65
f 25/51/67 26/52/68 28/49/65
f 26/52/68 22/47/63 28/49/65
