# This file uses centimeters as units for non-parametric coordinates.

mtllib guide.mtl
g default
v 12.573483 8.110758 1.598321
v 12.641581 8.110758 1.598321
v 12.573483 9.933979 1.598321
v 12.641581 9.933979 1.598321
v 12.573483 9.933979 -2.072521
v 12.641581 9.933979 -2.072521
v 12.573483 8.110758 -2.072521
v 12.641581 8.110758 -2.072521
v 12.414080 0.638721 -2.254782
v 12.765928 0.638721 -2.254782
v 12.414080 10.351757 -2.254782
v 12.765928 10.351757 -2.254782
v 12.414080 10.351757 -2.606632
v 12.765928 10.351757 -2.606632
v 12.414080 0.638721 -2.606632
v 12.765928 0.638721 -2.606632
v 12.414080 10.081935 -2.254782
v 12.765928 10.081935 -2.254782
v 12.765928 10.081935 -2.606632
v 12.414080 10.081935 -2.606632
v 12.414080 10.081935 1.689202
v 12.765928 10.081935 1.689202
v 12.765928 10.351757 1.689202
v 12.414080 10.351757 1.689202
v 12.598400 9.930665 1.208932
v 12.646020 9.930665 1.208932
v 12.598400 10.092849 1.208932
v 12.646020 10.092849 1.208932
v 12.598400 10.092849 0.908347
v 12.646020 10.092849 0.908347
v 12.598400 9.930665 0.908347
v 12.646020 9.930665 0.908347
v 12.598400 9.930665 -1.373969
v 12.646020 9.930665 -1.373969
v 12.598400 10.092849 -1.373969
v 12.646020 10.092849 -1.373969
v 12.598400 10.092849 -1.674554
v 12.646020 10.092849 -1.674554
v 12.598400 9.930665 -1.674554
v 12.646020 9.930665 -1.674554
vt 0.510416 0.586653
vt 0.501954 0.586654
vt 0.638192 0.243895
vt 0.501930 0.360102
vt 0.382575 0.243923
vt 0.382576 0.248665
vt 0.255617 0.243937
vt 0.255617 0.248679
vt 0.000000 0.243965
vt 0.000000 0.248707
vt 0.045819 0.586704
vt 0.045794 0.360152
vt 0.966552 0.586603
vt 0.966527 0.360051
vt 0.323638 0.243854
vt 0.299138 0.243851
vt 1.000000 0.151505
vt 0.323641 0.225065
vt 0.598278 0.225105
vt 0.725363 0.151508
vt 0.700862 0.151508
vt 0.700862 0.127007
vt 0.682073 0.151508
vt 0.682073 0.127008
vt 0.024501 0.127015
vt 0.024501 0.151516
vt 0.000000 0.151516
vt 0.000000 0.127015
vt 0.024501 0.243811
vt 0.000000 0.225019
vt 0.000003 0.225019
vt 0.000004 0.176017
vt 0.274640 0.151555
vt 0.622779 0.225108
vt 0.657572 0.200612
vt 0.932209 0.176150
vt 0.657572 0.225113
vt 0.657576 0.176111
vt 0.580470 0.020931
vt 0.580475 0.024247
vt 0.569181 0.024263
vt 0.569176 0.020947
vt 0.548250 0.024293
vt 0.548245 0.020977
vt 0.536956 0.024309
vt 0.536952 0.020993
vt 0.516025 0.024339
vt 0.516021 0.021023
vt 0.580504 0.045178
vt 0.569211 0.045194
vt 0.580440 0.000000
vt 0.569147 0.000016
vt 0.645014 0.020931
vt 0.645018 0.024247
vt 0.633725 0.024263
vt 0.633720 0.020947
vt 0.612794 0.024293
vt 0.612789 0.020977
vt 0.601500 0.024309
vt 0.601495 0.020993
vt 0.580569 0.024339
vt 0.580564 0.021023
vt 0.645048 0.045178
vt 0.633754 0.045194
vt 0.644984 0.000000
vt 0.633690 0.000016
vt 0.510391 0.360101
vt 0.638193 0.248637
vt 1.000000 0.127004
vt 0.299140 0.225062
vt 0.725363 0.127007
vt 0.024504 0.225022
vt 0.274637 0.176056
vt 0.000000 0.200518
vt 0.657575 0.200612
vt 0.932212 0.151650
vt 0.000004 0.151516
vt 0.000000 0.176017
vt 0.622776 0.243897
vt 0.598275 0.243893
vt 0.000004 0.200518
vt 0.000000 0.243808
vn 0.000000 0.000000 1.000000
vn 0.000000 0.000000 1.000000
vn 0.000000 0.000000 1.000000
vn 0.000000 0.000000 1.000000
vn 0.000000 1.000000 0.000000
vn 0.000000 1.000000 0.000000
vn 0.000000 1.000000 0.000000
vn 0.000000 1.000000 0.000000
vn 0.000000 0.000000 -1.000000
vn 0.000000 0.000000 -1.000000
vn 0.000000 0.000000 -1.000000
vn 0.000000 0.000000 -1.000000
vn 0.000000 -1.000000 0.000000
vn 0.000000 -1.000000 0.000000
vn 0.000000 -1.000000 0.000000
vn 0.000000 -1.000000 0.000000
vn 1.000000 0.000000 0.000000
vn 1.000000 0.000000 0.000000
vn 1.000000 0.000000 0.000000
vn 1.000000 0.000000 0.000000
vn -1.000000 0.000000 0.000000
vn -1.000000 0.000000 0.000000
vn -1.000000 0.000000 0.000000
vn -1.000000 0.000000 0.000000
vn 0.000000 0.000000 1.000000
vn 0.000000 0.000000 1.000000
vn 0.000000 0.000000 1.000000
vn 0.000000 0.000000 1.000000
vn 0.000000 1.000000 0.000000
vn 0.000000 1.000000 0.000000
vn 0.000000 1.000000 0.000000
vn 0.000000 1.000000 0.000000
vn 0.000000 0.000000 -1.000000
vn 0.000000 0.000000 -1.000000
vn 0.000000 0.000000 -1.000000
vn 0.000000 0.000000 -1.000000
vn 0.000000 -1.000000 0.000000
vn 0.000000 -1.000000 0.000000
vn 0.000000 -1.000000 0.000000
vn 0.000000 -1.000000 0.000000
vn 1.000000 0.000000 0.000000
vn 1.000000 0.000000 0.000000
vn 1.000000 0.000000 0.000000
vn 1.000000 0.000000 0.000000
vn -1.000000 0.000000 0.000000
vn -1.000000 0.000000 0.000000
vn -1.000000 0.000000 0.000000
vn -1.000000 0.000000 0.000000
vn 0.000000 0.000000 1.000000
vn 0.000000 0.000000 1.000000
vn 0.000000 0.000000 1.000000
vn 0.000000 0.000000 1.000000
vn 1.000000 0.000000 0.000000
vn 1.000000 0.000000 0.000000
vn 0.000000 0.000000 -1.000000
vn 0.000000 0.000000 -1.000000
vn -1.000000 0.000000 0.000000
vn -1.000000 0.000000 0.000000
vn 0.000000 -1.000000 0.000000
vn 0.000000 -1.000000 0.000000
vn 0.000000 -1.000000 0.000000
vn 0.000000 -1.000000 0.000000
vn 1.000000 0.000000 0.000000
vn 1.000000 0.000000 0.000000
vn 1.000000 0.000000 0.000000
vn 1.000000 0.000000 0.000000
vn 0.000000 1.000000 0.000000
vn 0.000000 1.000000 0.000000
vn 0.000000 1.000000 0.000000
vn 0.000000 1.000000 0.000000
vn -1.000000 0.000000 0.000000
vn -1.000000 0.000000 0.000000
vn -1.000000 0.000000 0.000000
vn -1.000000 0.000000 0.000000
vn 0.000000 0.000000 1.000000
vn 0.000000 0.000000 1.000000
vn 0.000000 0.000000 1.000000
vn 0.000000 0.000000 1.000000
vn 0.000000 1.000000 0.000000
vn 0.000000 1.000000 0.000000
vn 0.000000 1.000000 0.000000
vn 0.000000 1.000000 0.000000
vn 0.000000 0.000000 -1.000000
vn 0.000000 0.000000 -1.000000
vn 0.000000 0.000000 -1.000000
vn 0.000000 0.000000 -1.000000
vn 0.000000 -1.000000 0.000000
vn 0.000000 -1.000000 0.000000
vn 0.000000 -1.000000 0.000000
vn 0.000000 -1.000000 0.000000
vn 1.000000 0.000000 0.000000
vn 1.000000 0.000000 0.000000
vn 1.000000 0.000000 0.000000
vn 1.000000 0.000000 0.000000
vn -1.000000 0.000000 0.000000
vn -1.000000 0.000000 0.000000
vn -1.000000 0.000000 0.000000
vn -1.000000 0.000000 0.000000
vn 0.000000 0.000000 1.000000
vn 0.000000 0.000000 1.000000
vn 0.000000 0.000000 1.000000
vn 0.000000 0.000000 1.000000
vn 0.000000 1.000000 0.000000
vn 0.000000 1.000000 0.000000
vn 0.000000 1.000000 0.000000
vn 0.000000 1.000000 0.000000
vn 0.000000 0.000000 -1.000000
vn 0.000000 0.000000 -1.000000
vn 0.000000 0.000000 -1.000000
vn 0.000000 0.000000 -1.000000
vn 0.000000 -1.000000 0.000000
vn 0.000000 -1.000000 0.000000
vn 0.000000 -1.000000 0.000000
vn 0.000000 -1.000000 0.000000
vn 1.000000 0.000000 0.000000
vn 1.000000 0.000000 0.000000
vn 1.000000 0.000000 0.000000
vn 1.000000 0.000000 0.000000
vn -1.000000 0.000000 0.000000
vn -1.000000 0.000000 0.000000
vn -1.000000 0.000000 0.000000
vn -1.000000 0.000000 0.000000
s off
g pCube6
usemtl initialShadingGroup
f 1/1/1 2/2/2 4/4/3 3/67/4
f 3/3/5 4/68/6 6/6/7 5/5/8
f 5/5/9 6/6/10 8/8/11 7/7/12
f 7/7/13 8/8/14 2/10/15 1/9/16
f 2/2/17 8/11/18 6/12/19 4/4/20
f 7/13/21 1/1/22 3/67/23 5/14/24
f 21/15/25 22/16/26 23/70/27 24/18/28
f 11/71/29 12/20/30 14/21/31 13/22/32
s 1
f 13/22/33 14/21/34 19/23/35 20/24/36
s off
f 15/25/37 16/26/38 10/27/39 9/28/40
s 2
f 18/29/41 19/82/42 14/31/43 12/72/44
s 3
f 20/79/45 17/80/46 11/19/47 13/34/48
s off
f 9/76/49 10/36/50 18/73/51 17/33/52
s 2
f 10/75/53 16/37/54 19/30/42 18/81/41
s 1
f 20/24/36 19/23/35 16/26/55 15/25/56
s 3
f 15/38/57 9/35/58 17/74/46 20/32/45
s off
f 17/33/59 18/73/60 22/78/61 21/77/62
f 18/29/63 12/72/64 23/70/65 22/16/66
f 12/20/67 11/71/68 24/69/69 23/17/70
f 11/19/71 17/80/72 21/15/73 24/18/74
f 25/39/75 26/40/76 28/41/77 27/42/78
f 27/42/79 28/41/80 30/43/81 29/44/82
f 29/44/83 30/43/84 32/45/85 31/46/86
f 31/46/87 32/45/88 26/47/89 25/48/90
f 26/40/91 32/49/92 30/50/93 28/41/94
f 31/51/95 25/39/96 27/42/97 29/52/98
f 33/53/99 34/54/100 36/55/101 35/56/102
f 35/56/103 36/55/104 38/57/105 37/58/106
f 37/58/107 38/57/108 40/59/109 39/60/110
f 39/60/111 40/59/112 34/61/113 33/62/114
f 34/54/115 40/63/116 38/64/117 36/55/118
f 39/65/119 33/53/120 35/56/121 37/66/122
