# This file uses centimeters as units for non-parametric coordinates.

mtllib HOUSE.mtl
g default
v -26.457701 -0.109568 26.457676
v 26.457701 -0.109568 26.457676
v -26.457701 29.936766 26.457676
v 26.457701 29.936766 26.457676
v -26.457701 29.936766 -17.326664
v 26.457701 29.936766 -17.326664
v -26.457701 -0.109568 -17.326664
v 26.457701 -0.109568 -17.326664
v 0.000000 -0.109568 26.457676
v 0.000000 -0.109568 -17.326664
v 0.000000 29.936766 -17.326664
v 0.000000 29.936766 26.457676
v -26.457701 29.936766 -38.897476
v 0.000000 29.936766 -38.897476
v 0.000000 -0.109568 -38.897476
v -26.457701 -0.109568 -38.897476
v 0.000000 61.219208 -17.326664
v 0.000000 61.219208 26.457676
v 26.457701 41.430664 26.457676
v 26.457701 41.430664 -17.326664
v -26.457701 41.430664 26.457676
v -26.457701 41.430664 -17.326664
v 0.000000 61.219208 -38.897476
v -26.457701 41.430664 -38.897476
vt 0.185156 0.932430
vt 0.377919 0.326099
vt 0.192782 0.000006
vt 0.719131 0.396926
vt 0.378314 0.326102
vt 0.882297 0.192777
vt 0.193158 0.326089
vt 0.719126 0.326096
vt 0.449327 0.000002
vt 0.449313 0.326085
vt 0.479205 0.932422
vt 0.294049 0.932474
vt 0.185159 0.662617
vt 0.000004 0.662614
vt 0.377928 0.163058
vt 0.449320 0.163044
vt 0.866974 0.540974
vt 0.612145 0.814837
vt 0.192773 0.163048
vt 0.378304 0.459028
vt 0.588177 0.622060
vt 0.999901 0.540971
vt 0.193149 0.459016
vt 0.402740 0.662630
vt 0.719126 0.326096
vt 0.882299 0.121947
vt 0.612135 0.622064
vt 0.402752 0.459030
vt 0.132939 0.459014
vt 0.780950 0.622039
vt 0.449134 0.459034
vt 0.449143 0.326107
vt 0.658989 0.459011
vt 0.000012 0.459006
vt 0.479208 0.622072
vt 0.000000 0.662606
vt 0.588159 0.459018
vt 0.719260 0.000000
vt 0.612273 0.622063
vt 0.132927 0.662614
vt 0.479219 0.814844
vt 0.121953 0.000002
vt 0.449162 0.056293
vt 0.882087 0.622024
vt 0.000000 0.163037
vt 0.000000 0.932428
vt 0.378333 0.056288
vt 0.449313 0.326115
vt 0.612302 0.825662
vt 0.121934 0.326085
vt 0.882116 0.825624
vt 0.449317 0.396944
vt 0.293973 0.662660
vt 0.192764 0.326089
vt 0.719256 0.192773
vt 0.999898 0.377930
vt 0.403004 0.459039
vt 0.479229 1.000000
vt 0.403021 0.622080
vt 0.719140 0.000014
vt 0.866971 0.377932
vt 0.719133 0.163055
vt 0.719252 0.377928
vt 0.612155 0.999993
vt 0.882293 0.377932
vt 0.479129 0.662608
vt 0.377938 0.000017
vn -0.000000 0.000000 1.000000
vn 0.000000 0.000000 1.000000
vn 0.000000 0.000000 1.000000
vn -0.000000 0.000000 1.000000
vn 0.598939 0.800794 0.000000
vn 0.598939 0.800794 0.000000
vn 0.598939 0.800794 0.000000
vn 0.598939 0.800794 0.000000
vn 0.000000 0.000000 -1.000000
vn 0.000000 0.000000 -1.000000
vn 0.000000 0.000000 -1.000000
vn 0.000000 0.000000 -1.000000
vn 0.000000 -1.000000 0.000000
vn 0.000000 -1.000000 0.000000
vn 0.000000 -1.000000 0.000000
vn 0.000000 -1.000000 0.000000
vn 1.000000 0.000000 0.000000
vn 1.000000 0.000000 0.000000
vn 1.000000 0.000000 0.000000
vn 1.000000 0.000000 0.000000
vn -1.000000 0.000000 0.000000
vn -1.000000 0.000000 0.000000
vn -1.000000 0.000000 0.000000
vn -1.000000 0.000000 0.000000
vn 0.000000 -1.000000 0.000000
vn 0.000000 -1.000000 0.000000
vn 0.000000 0.000000 -1.000000
vn 0.000000 0.000000 -1.000000
vn 0.000000 0.000000 -1.000000
vn 0.000000 0.000000 -1.000000
vn -0.598939 0.800794 0.000000
vn -0.598939 0.800794 0.000000
vn -0.598939 0.800794 0.000000
vn -0.598939 0.800794 0.000000
vn 0.000000 0.000000 1.000000
vn 0.000000 0.000000 1.000000
vn -0.598939 0.800795 0.000000
vn -0.598939 0.800795 0.000000
vn 1.000000 0.000000 0.000000
vn 1.000000 0.000000 0.000000
vn 1.000000 0.000000 0.000000
vn 1.000000 0.000000 0.000000
vn 0.000000 -1.000000 0.000000
vn 0.000000 -1.000000 0.000000
vn 0.000000 -1.000000 0.000000
vn 0.000000 -1.000000 0.000000
vn -1.000000 0.000000 0.000000
vn -1.000000 0.000000 0.000000
vn -0.000000 0.000000 1.000000
vn -0.000000 0.000000 1.000000
vn 1.000000 0.000000 0.000000
vn 1.000000 0.000000 0.000000
vn 0.000000 0.000000 -1.000000
vn 0.000000 0.000000 -1.000000
vn 0.000000 0.000000 1.000000
vn -1.000000 0.000000 0.000000
vn -1.000000 0.000000 0.000000
vn 1.000000 0.000000 0.000000
vn 1.000000 0.000000 0.000000
vn 0.000000 0.000000 -1.000000
vn 0.000000 0.000000 -1.000000
vn -1.000000 0.000000 0.000000
s 1
g house
usemtl initialShadingGroup
f 12/19/1 9/15/2 2/2/3 4/54/4
s off
f 17/39/5 18/44/6 19/51/7 20/49/8
s 2
f 10/63/9 11/55/10 6/6/11 8/65/12
s 3
f 9/16/13 10/62/14 8/8/15 2/10/16
s 4
f 2/66/17 8/11/18 6/12/19 4/53/20
s 5
f 7/13/21 1/1/22 3/46/23 5/14/24
s 3
f 7/60/25 10/62/14 9/16/13 1/9/26
s 6
f 13/37/27 14/21/28 15/59/29 16/57/30
s 7
f 21/28/31 18/24/32 17/40/33 22/29/34
s 1
f 1/67/35 9/15/2 12/19/1 3/3/36
s 7
f 22/29/34 17/40/33 23/36/37 24/34/38
s 8
f 11/18/39 10/64/40 15/58/41 14/41/42
s off
f 10/17/43 7/61/44 16/56/45 15/22/46
s 5
f 7/7/21 5/5/24 13/20/47 16/23/48
s 1
f 12/19/1 4/54/4 19/50/49 18/45/50
s 4
f 4/4/20 6/52/19 20/48/51 19/25/52
s 2
f 6/6/11 11/55/10 17/38/53 20/26/54
s 1
f 3/3/36 12/19/1 18/45/50 21/42/55
s 5
f 5/5/24 3/47/23 21/43/56 22/32/57
s 8
f 11/18/39 14/41/42 23/35/58 17/27/59
s 6
f 14/21/28 13/37/27 24/33/60 23/30/61
s 5
f 13/20/47 5/5/24 22/32/57 24/31/62
